<?xml version="1.0" encoding="UTF-8" standalone="no"?>
<!-- Created with Inkscape (http://www.inkscape.org/) -->

<svg
   width="160"
   height="160"
   viewBox="0 0 42.333332 42.333333"
   version="1.1"
   id="svg1"
   sodipodi:docname="logo1.svg"
   inkscape:version="1.4 (e7c3feb1, 2024-10-09)"
   xmlns:inkscape="http://www.inkscape.org/namespaces/inkscape"
   xmlns:sodipodi="http://sodipodi.sourceforge.net/DTD/sodipodi-0.dtd"
   xmlns="http://www.w3.org/2000/svg"
   xmlns:svg="http://www.w3.org/2000/svg">
  <sodipodi:namedview
     id="namedview1"
     pagecolor="#ffffff"
     bordercolor="#000000"
     borderopacity="0.25"
     inkscape:showpageshadow="2"
     inkscape:pageopacity="0.0"
     inkscape:pagecheckerboard="0"
     inkscape:deskcolor="#d1d1d1"
     inkscape:zoom="0.81960547"
     inkscape:rotation="-1"
     inkscape:cx="128.18843"
     inkscape:cy="136.4689"
     inkscape:window-width="1424"
     inkscape:window-height="631"
     inkscape:window-x="0"
     inkscape:window-y="37"
     inkscape:window-maximized="0"
     inkscape:current-layer="layer1" />
  <defs
     id="defs1" />
  <g
     id="layer1">
    <ellipse
       style="fill:#d45500;fill-opacity:0;stroke-width:0.264583"
       id="path1"
       cx="4.7475133"
       cy="3.9562609"
       rx="40.156048"
       ry="49.255447" />
    <ellipse
       style="fill:#d3bc5f;fill-opacity:0;stroke-width:0.264583"
       id="path10"
       cx="8.7037735"
       cy="8.0114288"
       rx="0.79125214"
       ry="5.835485" />
    <circle
       style="fill:#d3415f;fill-opacity:0;stroke-width:0.264583"
       id="path11"
       cx="17.60536"
       cy="23.144125"
       r="9.4950266" />
    <g
       id="g11"
       style="fill:#d3415f;fill-opacity:0">
      <path
         id="path14"
         style="fill:#8686bf;fill-rule:evenodd;stroke:none;stroke-linejoin:round"
         d="m -60.135173,6.1322026 12.462232,3.1156968 V -1.7803159 l -12.462232,-5.9985937 z"
         points="-47.672941,9.2478994 -47.672941,-1.7803159 -60.135173,-7.7789096 -60.135173,6.1322026 " />
      <path
         id="path12"
         style="fill:#353564;fill-rule:evenodd;stroke:none;stroke-linejoin:round"
         d="M -60.135173,6.1322026 V -7.7789096 L -311.3209,-78.734522 v 48.012057 z"
         points="-60.135173,-7.7789096 -311.3209,-78.734522 -311.3209,-30.722465 -60.135173,6.1322026 " />
      <path
         id="path13"
         style="fill:#4d4d9f;fill-rule:evenodd;stroke:none;stroke-linejoin:round"
         d="M -60.135173,6.1322026 -47.672941,9.2478994 -163.6619,-6.111534 -311.3209,-30.722465 Z"
         points="-47.672941,9.2478994 -163.6619,-6.111534 -311.3209,-30.722465 -60.135173,6.1322026 " />
      <path
         id="path17"
         style="fill:#e9e9ff;fill-rule:evenodd;stroke:none;stroke-linejoin:round"
         d="m -311.3209,-30.722465 147.659,24.610931 V -31.35155 l -147.659,-47.382972 z"
         points="-163.6619,-6.111534 -163.6619,-31.35155 -311.3209,-78.734522 -311.3209,-30.722465 " />
      <path
         id="path15"
         style="fill:#d7d7ff;fill-rule:evenodd;stroke:none;stroke-linejoin:round"
         d="M -47.672941,9.2478994 V -1.7803159 L -163.6619,-31.35155 v 25.240016 z"
         points="-47.672941,-1.7803159 -163.6619,-31.35155 -163.6619,-6.111534 -47.672941,9.2478994 " />
      <path
         id="path16"
         style="fill:#afafde;fill-rule:evenodd;stroke:none;stroke-linejoin:round"
         d="M -60.135173,-7.7789096 -47.672941,-1.7803159 -163.6619,-31.35155 -311.3209,-78.734522 Z"
         points="-47.672941,-1.7803159 -163.6619,-31.35155 -311.3209,-78.734522 -60.135173,-7.7789096 " />
    </g>
    <path
       style="fill:#c4ff86;fill-opacity:0.99805498;stroke:none;stroke-width:0.335569;stroke-opacity:1"
       id="path25"
       d="M 27.975992,40.846557 A 20.572557,20.572557 0 0 1 2.0252659,27.746317 20.572557,20.572557 0 0 1 15.082452,1.7739009 20.572557,20.572557 0 0 1 41.076486,14.787997 20.572557,20.572557 0 0 1 28.105516,40.803577" />
  </g>
</svg>
